<svg xmlns="http://www.w3.org/2000/svg" viewBox="0 0 260.61 289.65"><defs><style>.cls-1{fill:#383838;}</style></defs><title>Asset 1</title><g id="Layer_2" data-name="Layer 2"><g id="Layer_1-2" data-name="Layer 1"><path class="cls-1" d="M53.55,46.52q25.32,0,50.63,0a15.25,15.25,0,0,1,2.72.49c-.8.41-1.59.82-2.4,1.2-2.93,1.4-5.26,3.45-6.23,6.61a25.55,25.55,0,0,0-.82,10c1,10.75,5.67,20.25,9.82,29.92,3.21,7.48,6.59,14.89,10,22.3,2.68,5.88,5.5,11.69,8.17,17.57,2.32,5.08,4.51,10.22,6.77,15.32q6.22,14,12.46,28,6.66,15,13.33,30c.48,1.09,1.35,2.11,1.51,3.24a10.7,10.7,0,0,1-.26,4.65c-1.15,3.39-2.64,6.65-4,10q-5.85,14.58-11.66,29.15c-3.07,7.72-6.09,15.45-9.15,23.16-1.3,3.27-2.57,6.54-4,9.73-.32.7-1.38,1.06-2.13,1.56-.11.07-.31,0-.47,0-5.36.87-8.58-.68-10.71-6.38-3.88-10.39-8.84-20.37-13.42-30.49-2.37-5.24-4.9-10.4-7.34-15.6q-4.95-10.62-9.86-21.25-4.2-9.13-8.32-18.32-6.61-14.62-13.2-29.27c-3.62-8-7.21-16-10.91-24-4.09-8.83-8.36-17.58-12.43-26.42-4.4-9.57-8.62-19.23-13-28.83-3.11-6.83-6.17-13.7-9.56-20.39a153.87,153.87,0,0,0-7.88-13.39,17.05,17.05,0,0,0-9.86-7.2A5.53,5.53,0,0,1,0,47.06a5,5,0,0,1,1.48-.51c2.32,0,4.64,0,7,0H53.55Z"/><path class="cls-1" d="M258.5,56.48c.88.44,1.94.87,2.08,1.58.26,1.38-1.05,1.81-2.21,1.95-1.9.23-3.85.16-5.71.56-10.75,2.29-21,5.75-28.88,13.9C218.73,79.68,215.71,86,213.65,93c-2.5,8.45-2.19,17-2.22,25.66a10.28,10.28,0,0,1-.14,2.61c-.13.5-.77,1.16-1.2,1.18a1.82,1.82,0,0,1-1.31-1.05,8,8,0,0,1-.23-2.37c-.18-6.3.24-12.69-.64-18.89-1.79-12.56-6.49-23.79-17.86-30.89a58.49,58.49,0,0,0-27.9-9.12c-.47,0-1.08.05-1.4-.2a11.52,11.52,0,0,1-1.45-1.58.52.52,0,0,1,0-.68c.53-.53,1-1.16,1.66-1.3,4.51-1,9.14-1.58,13.58-2.82C187.12,50,197.09,42.91,203.2,31.15a42.28,42.28,0,0,0,5.08-19.27q0-4.79.05-9.59c0-1.09,0-2.19,1.45-2.28s1.9.91,1.91,2.17c0,2.08,0,4.16,0,6.81-.37,8.64,2.18,17.18,6.79,25,4.73,8,11.73,13.59,20.33,17.21"/></g></g></svg>